<?xml version="1.0" encoding="UTF-8"?>
<!DOCTYPE svg PUBLIC "-//W3C//DTD SVG 1.1//EN" "http://www.w3.org/Graphics/SVG/1.1/DTD/svg11.dtd">
<svg version="1.2" width="162.81mm" height="162.81mm" viewBox="0 0 16281 16281" preserveAspectRatio="xMidYMid" fill-rule="evenodd" stroke-width="28.222" stroke-linejoin="round" xmlns="http://www.w3.org/2000/svg" xmlns:ooo="http://xml.openoffice.org/svg/export" xmlns:xlink="http://www.w3.org/1999/xlink" xmlns:presentation="http://sun.com/xmlns/staroffice/presentation" xmlns:smil="http://www.w3.org/2001/SMIL20/" xmlns:anim="urn:oasis:names:tc:opendocument:xmlns:animation:1.0" xml:space="preserve">
 <defs class="ClipPathGroup">
  <clipPath id="presentation_clip_path" clipPathUnits="userSpaceOnUse">
   <rect x="0" y="0" width="16281" height="16281"/>
  </clipPath>
  <clipPath id="presentation_clip_path_shrink" clipPathUnits="userSpaceOnUse">
   <rect x="16" y="16" width="16249" height="16249"/>
  </clipPath>
 </defs>
 <defs class="TextShapeIndex">
  <g ooo:slide="id1" ooo:id-list="id3"/>
 </defs>
 <defs class="EmbeddedBulletChars">
  <g id="bullet-char-template-57356" transform="scale(0.00048828125,-0.00048828125)">
   <path d="M 580,1141 L 1163,571 580,0 -4,571 580,1141 Z"/>
  </g>
  <g id="bullet-char-template-57354" transform="scale(0.00048828125,-0.00048828125)">
   <path d="M 8,1128 L 1137,1128 1137,0 8,0 8,1128 Z"/>
  </g>
  <g id="bullet-char-template-10146" transform="scale(0.00048828125,-0.00048828125)">
   <path d="M 174,0 L 602,739 174,1481 1456,739 174,0 Z M 1358,739 L 309,1346 659,739 1358,739 Z"/>
  </g>
  <g id="bullet-char-template-10132" transform="scale(0.00048828125,-0.00048828125)">
   <path d="M 2015,739 L 1276,0 717,0 1260,543 174,543 174,936 1260,936 717,1481 1274,1481 2015,739 Z"/>
  </g>
  <g id="bullet-char-template-10007" transform="scale(0.00048828125,-0.00048828125)">
   <path d="M 0,-2 C -7,14 -16,27 -25,37 L 356,567 C 262,823 215,952 215,954 215,979 228,992 255,992 264,992 276,990 289,987 310,991 331,999 354,1012 L 381,999 492,748 772,1049 836,1024 860,1049 C 881,1039 901,1025 922,1006 886,937 835,863 770,784 769,783 710,716 594,584 L 774,223 C 774,196 753,168 711,139 L 727,119 C 717,90 699,76 672,76 641,76 570,178 457,381 L 164,-76 C 142,-110 111,-127 72,-127 30,-127 9,-110 8,-76 1,-67 -2,-52 -2,-32 -2,-23 -1,-13 0,-2 Z"/>
  </g>
  <g id="bullet-char-template-10004" transform="scale(0.00048828125,-0.00048828125)">
   <path d="M 285,-33 C 182,-33 111,30 74,156 52,228 41,333 41,471 41,549 55,616 82,672 116,743 169,778 240,778 293,778 328,747 346,684 L 369,508 C 377,444 397,411 428,410 L 1163,1116 C 1174,1127 1196,1133 1229,1133 1271,1133 1292,1118 1292,1087 L 1292,965 C 1292,929 1282,901 1262,881 L 442,47 C 390,-6 338,-33 285,-33 Z"/>
  </g>
  <g id="bullet-char-template-9679" transform="scale(0.00048828125,-0.00048828125)">
   <path d="M 813,0 C 632,0 489,54 383,161 276,268 223,411 223,592 223,773 276,916 383,1023 489,1130 632,1184 813,1184 992,1184 1136,1130 1245,1023 1353,916 1407,772 1407,592 1407,412 1353,268 1245,161 1136,54 992,0 813,0 Z"/>
  </g>
  <g id="bullet-char-template-8226" transform="scale(0.00048828125,-0.00048828125)">
   <path d="M 346,457 C 273,457 209,483 155,535 101,586 74,649 74,723 74,796 101,859 155,911 209,963 273,989 346,989 419,989 480,963 531,910 582,859 608,796 608,723 608,648 583,586 532,535 482,483 420,457 346,457 Z"/>
  </g>
  <g id="bullet-char-template-8211" transform="scale(0.00048828125,-0.00048828125)">
   <path d="M -4,459 L 1135,459 1135,606 -4,606 -4,459 Z"/>
  </g>
  <g id="bullet-char-template-61548" transform="scale(0.00048828125,-0.00048828125)">
   <path d="M 173,740 C 173,903 231,1043 346,1159 462,1274 601,1332 765,1332 928,1332 1067,1274 1183,1159 1299,1043 1357,903 1357,740 1357,577 1299,437 1183,322 1067,206 928,148 765,148 601,148 462,206 346,322 231,437 173,577 173,740 Z"/>
  </g>
 </defs>
 <g>
  <g id="id2" class="Master_Slide">
   <g id="bg-id2" class="Background"/>
   <g id="bo-id2" class="BackgroundObjects"/>
  </g>
 </g>
 <g class="SlideGroup">
  <g>
   <g id="container-id1">
    <g id="id1" class="Slide" clip-path="url(#presentation_clip_path)">
     <g class="Page">
      <g class="Graphic">
       <title>Untitled drawing
       </title>
       <g id="id3">
        <rect class="BoundingBox" stroke="none" fill="none" x="0" y="0" width="16281" height="16281"/>
        <path fill="rgb(226,225,222)" stroke="none" d="M 12060,16267 L 4220,16267 C 1897,16267 13,14383 13,12060 L 13,4220 C 13,1897 1897,13 4220,13 L 12060,13 C 14383,13 16267,1897 16267,4220 L 16267,12060 C 16267,14383 14383,16267 12060,16267 L 12060,16267 Z"/>
        <defs>
         <clipPath id="clip_path_1" clipPathUnits="userSpaceOnUse">
          <path d="M 12060,16267 L 4220,16267 C 1897,16267 13,14383 13,12060 L 13,4220 C 13,1897 1897,13 4220,13 L 12060,13 C 14383,13 16267,1897 16267,4220 L 16267,12060 C 16267,14383 14383,16267 12060,16267 L 12060,16267 Z"/>
         </clipPath>
        </defs>
        <g clip-path="url(#clip_path_1)">
         <path fill="rgb(0,0,0)" stroke="none" d="M 13119,12457 L 13119,7351 C 13119,7338 13117,7326 13116,7313 13116,7310 13116,7307 13115,7304 13113,7283 13108,7263 13102,7244 13100,7238 13098,7233 13096,7228 13089,7208 13081,7188 13070,7169 13070,7169 13070,7169 13070,7169 13070,7169 13069,7169 13069,7169 13059,7150 13046,7133 13032,7117 13028,7112 13024,7108 13021,7104 13007,7089 12992,7075 12976,7062 12973,7060 12970,7058 12967,7056 12957,7049 12947,7042 12936,7036 L 8514,4482 C 8401,4417 8263,4417 8150,4482 L 3728,7036 C 3717,7042 3707,7049 3697,7056 3695,7058 3691,7060 3688,7062 3672,7075 3657,7089 3643,7104 3640,7108 3636,7112 3632,7116 3618,7133 3605,7150 3595,7169 3595,7169 3594,7169 3594,7169 3594,7169 3594,7169 3594,7169 3583,7188 3575,7208 3568,7228 3566,7233 3564,7238 3562,7244 3556,7263 3551,7283 3549,7304 3548,7307 3548,7310 3548,7313 3547,7326 3546,7338 3546,7351 L 3546,12457 C 3546,12587 3615,12707 3728,12772 L 8150,15326 C 8161,15332 8172,15337 8184,15342 8187,15344 8189,15345 8192,15347 8211,15354 8231,15360 8251,15365 8257,15366 8262,15367 8268,15368 8289,15372 8310,15374 8332,15374 8354,15374 8375,15372 8397,15368 8402,15367 8408,15366 8413,15365 8433,15360 8453,15354 8472,15347 8475,15345 8478,15344 8481,15342 8492,15337 8504,15332 8514,15326 L 12937,12772 C 13049,12708 13119,12587 13119,12457 L 13119,12457 Z M 8332,5218 L 9620,5962 5926,8094 4638,7351 8332,5218 8332,5218 Z M 7968,14380 L 4274,12247 4274,7982 5638,8769 5638,10537 C 5638,10738 5801,10901 6003,10901 6204,10901 6367,10738 6367,10537 L 6367,9190 7968,10114 7968,14380 7968,14380 7968,14380 Z M 8332,9483 L 6654,8515 10348,6382 12026,7351 8332,9483 8332,9483 Z M 12390,12247 L 8696,14380 8696,10114 12390,7982 12390,12247 12390,12247 Z"/>
         <path fill="rgb(0,0,0)" stroke="none" d="M 4543,5594 C 4382,5594 4252,5464 4252,5303 L 4252,-7327 C 4252,-7488 4382,-7618 4543,-7618 4704,-7618 4834,-7488 4834,-7327 L 4834,5303 C 4834,5464 4704,5594 4543,5594 L 4543,5594 Z"/>
         <path fill="rgb(0,0,0)" stroke="none" d="M 11856,5432 C 11695,5432 11565,5302 11565,5141 L 11565,-7489 C 11565,-7650 11695,-7780 11856,-7780 12017,-7780 12147,-7650 12147,-7489 L 12147,5141 C 12147,5302 12017,5432 11856,5432 L 11856,5432 Z"/>
         <path fill="rgb(0,0,0)" stroke="none" d="M 10596,4745 C 10435,4745 10305,4615 10305,4454 L 10305,-3742 C 10305,-3903 10435,-4033 10596,-4033 10757,-4033 10887,-3903 10887,-3742 L 10887,4454 C 10887,4615 10757,4745 10596,4745 L 10596,4745 Z"/>
         <path fill="rgb(0,0,0)" stroke="none" d="M 5836,4745 C 5676,4745 5545,4615 5545,4454 L 5545,-3742 C 5545,-3903 5676,-4033 5836,-4033 5997,-4033 6127,-3903 6127,-3742 L 6127,4454 C 6127,4615 5997,4745 5836,4745 L 5836,4745 Z"/>
        </g>
       </g>
      </g>
     </g>
    </g>
   </g>
  </g>
 </g>
</svg>